#!OML:ASF E:/inclinewalkrobotboard/Project1/Captureday1/Session1/subject1.ASF
:FULLY-SPECIFIED
:DEGREES
238
root 0 0 0 1.4264476540582613 -3.535432513617685 1.8953527823058665
lowerback 11.966898816347873 0.8908942288080042 -0.10334482611810836
upperback -4.43371040712577 1.1159792954599739 -0.6293160911991099
thorax -11.553707502599828 0.5126646079408114 -0.865156619690504
lowerneck -6.0960202435852615 1.6532209438153187 4.622976900851549
upperneck 18.447286963689972 3.1571575415123614 -8.269403855525418
head 6.779562710461635 1.1635582578828583 -3.1887520127857787
rclavicle -1.7442108185200533E-16 -9.704859692311683E-16
rhumerus 22.222830672598583 15.94741003962424 -46.54352108188972
rradius 74.30947273069421
rwrist 27.89065458628913
rhand -34.85506505943977 -59.75539572085609
rfingers 7.12502
rthumb -8.015021371757689 -89.56795717184413
lclavicle -1.727021199740655E-16 -9.490066189307198E-16
lhumerus 22.79656497475396 -12.796496114393959 43.62970023588406
lradius 71.32329563236198
lwrist -23.638571978774767
lhand -45.337735704168146 -73.20195579597679
lfingers 7.12502
lthumb -18.094922083486555 -43.983852691465515
rfemur -25.601023955829355 -2.153344134691464 16.688861758355998
rtibia 54.69624018618504
rfoot -27.32319177610719 -16.466680641257646
rtoes -17.678660221102657
lfemur -21.7967720161725 1.2306142999502838 -18.181680622706764
ltibia 48.63437307188665
lfoot -23.723066831069367 -3.6043883071870355
ltoes -15.416722783010698
239
root 0 0 0 1.426482754968601 -3.5357146151510106 1.8949734436646273
lowerback 11.966910247135594 0.8910595488666495 -0.10292304217259973
upperback -4.433767250275089 1.116246965907322 -0.6293223475950772
thorax -11.553752529945516 0.5127846950023783 -0.8654399376966436
lowerneck -6.0959785979401495 1.6532031827000988 4.6230596011018745
upperneck 18.44729413705708 3.157155013895412 -8.269425473114659
head 6.779564372718179 1.1635573035423494 -3.188781437676605
rclavicle -1.7441586637321355E-16 -9.704845915826955E-16
rhumerus 22.223109096302984 15.947595738372298 -46.543354478260625
rradius 74.30973111381093
rwrist 27.89077988384359
rhand -34.855157065256265 -59.755834721230926
rfingers 7.12502
rthumb -8.015110956555 -89.5683922281562
lclavicle -1.7270396903273786E-16 -9.490056461534318E-16
lhumerus 22.796429166491432 -12.796462175668374 43.6297948474477
lradius 71.32318951357685
lwrist -23.63850064828884
lhand -45.33768981917951 -73.20171907421728
lfingers 7.12502
lthumb -18.09487867761675 -43.98362096426028
rfemur -25.599917606209686 -2.152825814380222 16.68963594335426
rtibia 54.69504445517491
rfoot -27.321844847555965 -16.465941288146386
rtoes -17.677122420431616
lfemur -21.797544916017735 1.230794285860337 -18.18153132771212
ltibia 48.63538314489021
lfoot -23.723877665511512 -3.604418940332104
ltoes -15.41732341203728
240
root 0 0 0 1.4265246395985312 -3.5360014732460714 1.8945973014517612
lowerback 11.966923751463023 0.8912275810868968 -0.10249923184508325
upperback -4.433832442705526 1.1165180302477256 -0.6293326454152862
thorax -11.553807972953088 0.5129064212681886 -0.8657292178700974
lowerneck -6.095920358601978 1.6531927028788862 4.62315368303631
upperneck 18.447299478828963 3.1571636624803427 -8.269461259921865
head 6.779562489747615 1.163561024810725 -3.1888158502661184
rclavicle -1.744101907882036E-16 -9.704829211987866E-16
rhumerus 22.223391950963503 15.947784432395759 -46.54318591735711
rradius 74.30999385702886
rwrist 27.890906698217393
rhand -34.85525058836508 -59.75627985801271
rfingers 7.12502
rthumb -8.015202086329408 -89.56883286169173
lclavicle -1.7270768005143094E-16 -9.490057582027906E-16
lhumerus 22.796163877173893 -12.79639592667455 43.62997923952008
lradius 71.32298183261628
lwrist -23.638361624437827
lhand -45.337600340471575 -73.20125812357227
lfingers 7.12502
lthumb -18.094794017900057 -43.98316722714877
rfemur -25.599302715920704 -2.15254115246063 16.69006314251823
rtibia 54.694391805599146
rfoot -27.321105784997876 -16.465533605735924
rtoes -17.676276652279643
lfemur -21.797926403954165 1.230874860766932 -18.181457201084754
ltibia 48.63583006277172
lfoot -23.724268161977925 -3.6044115444189475
ltoes -15.417587566180924
241
root 0 0 0 1.4265663827237938 -3.5362559207987787 1.8942707712860323
lowerback 11.966937124989746 0.8913765722599698 -0.10212707704530011
upperback -4.433895749985272 1.116757638208302 -0.6293446986907875
thorax -11.55386431282405 0.5130141083790712 -0.8659866923520979
lowerneck -6.095856915609901 1.653189028815229 4.623244541711311
upperneck 18.44730276976084 3.1571796529229785 -8.269503239986271
head 6.779558170070265 1.163567805033345 -3.1888497057433822
rclavicle -1.7440488200304987E-16 -9.704812395412895E-16
rhumerus 22.223642631069765 15.947951693207367 -46.54303704681524
rradius 74.31022689779543
rwrist 27.891018732578747
rhand -34.85533351267458 -59.75667372973068
rfingers 7.12502
rthumb -8.015282938635119 -89.56922237327498
lclavicle -1.7271232954621188E-16 -9.490066739321243E-16
lhumerus 22.795834205029397 -12.79631361834246 43.63020821810497
lradius 71.32272360008942
lwrist -23.638188982508012
lhand -45.33748920564799 -73.20068587141206
lfingers 7.12502
lthumb -18.09468886222346 -43.98260295496621
rfemur -25.599136141368163 -2.1524686705312828 16.690174688755803
rtibia 54.69423118305035
rfoot -27.320918533263942 -16.465427563506484
rtoes -17.676059644502324
lfemur -21.797964899776453 1.230870367794945 -18.181449058823123
ltibia 48.635796266209795
lfoot -23.72429274196339 -3.6043763897388157
ltoes -15.41756486682985
242
root 0 0 0 1.4266027886053871 -3.5364540027695224 1.8940226315156619
lowerback 11.966948723973408 0.8914925109514269 -0.10184057278637815
upperback -4.4339497003250266 1.1169434608434896 -0.6293565673015612
thorax -11.553914270300568 0.5130976968757982 -0.8661878792183676
lowerneck -6.095797490547253 1.6531909553557662 4.623321581630401
upperneck 18.447304100157712 3.157199185481789 -8.269544637064861
head 6.779552551722775 1.1635760457002693 -3.1888788983369096
rclavicle -1.7440051669391672E-16 -9.704797602499892E-16
rhumerus 22.223837579010016 15.94808179469763 -46.54292171423286
rradius 74.31040828521742
rwrist 27.891105556503664
rhand -34.8553980345044 -59.756979497137856
rfingers 7.12502
rthumb -8.01534589082552 -89.56952443564958
lclavicle -1.7271710294640855E-16 -9.49008080427337E-16
lhumerus 22.79549737369773 -12.796229533976001 43.630442069966335
lradius 71.32245966886904
lwrist -23.63801266525738
lhand -45.3373756934969 -73.20010153595248
lfingers 7.12502
lthumb -18.09458145327223 -43.98202617446921
rfemur -25.59932894788556 -2.152565478253365 16.690033919840765
rtibia 54.69446218749361
rfoot -27.321171403535807 -16.465562569524625
rtoes -17.67634458597413
lfemur -21.797739880060128 1.2308022795516111 -18.181491708884714
ltibia 48.63540414372292
lfoot -23.72403827787415 -3.6043247024658562
ltoes -15.417328670239517
243
root 0 0 0 1.4266306135947948 -3.5365847386849696 1.8938647361386736
lowerback 11.966957532690763 0.8915689852044655 -0.10165459212587513
upperback -4.4339898389767765 1.117065419221858 -0.6293668131579809
thorax -11.553953162881692 0.513152629427674 -0.8663213917442595
lowerneck -6.09574852379409 1.6531968733902114 4.62337855445049
upperneck 18.447303783376316 3.1572189554462677 -8.26958042143792
head 6.779546654275321 1.1635843598997653 -3.18890092007852
rclavicle -1.7439741027535565E-16 -9.704786189925254E-16
rhumerus 22.22396604433105 15.948167554169322 -46.54284614056395
rradius 74.31052796705663
rwrist 27.891162477550555
rhand -34.8554405852208 -59.75718046812187
rfingers 7.12502
rthumb -8.015387447601631 -89.56972266055074
lclavicle -1.7272137065442099E-16 -9.490096803983559E-16
lhumerus 22.795197436174863 -12.796154667877929 43.630650234237734
lradius 71.32222457943244
lwrist -23.637855714746877
lhand -45.337274641185594 -73.19958145742469
lfingers 7.12502
lthumb -18.094485831379338 -43.98151238194738
rfemur -25.599768778694052 -2.1527778974876863 16.68972039647818
rtibia 54.69495975461647
rfoot -27.321724702798438 -16.465862552781104
rtoes -17.676972589944995
lfemur -21.79734427927505 1.2306947525776515 -18.181567331310877
ltibia 48.63479086431192
lfoot -23.72360521831058 -3.604267021436158
ltoes -15.416961030769947
244
root 0 0 0 1.4266484878652315 -3.5366483034390233 1.8937946926437499
lowerback 11.966963135119753 0.8916061145565298 -0.10156772964348593
upperback -4.434014539409862 1.117123931177375 -0.6293745548912334
thorax -11.553978846951702 0.5131790671953641 -0.8663871393892449
lowerneck -6.095713562185162 1.6532050671705354 4.623413265470684
upperneck 18.447302262474306 3.157236438923381 -8.269607502692821
head 6.779541282016058 1.1635916918433553 -3.1889147790909935
rclavicle -1.7439564200360822E-16 -9.704778756510634E-16
rhumerus 22.22402827643608 15.948209128218375 -46.54281001930359
rradius 74.3105861187343
rwrist 27.891189715876646
rhand -34.85546123529943 -59.75727722717701
rfingers 7.12502
rthumb -8.01540766242264 -89.56981774111034
lclavicle -1.7272472176613834E-16 -9.49011225703409E-16
lhumerus 22.794962959117566 -12.796096148006807 43.63081290510454
lradius 71.32204074070424
lwrist -23.637733064102864
lhand -45.33719566575978 -73.19917509878795
lfingers 7.12502
lthumb -18.09441109762289 -43.98111056438486
rfemur -25.60033977070362 -2.1530508780896653 16.6893158895976
rtibia 54.695595978012655
rfoot -27.322435217962877 -16.466249352660405
rtoes -17.67778059762423
lfemur -21.79686954813227 1.2305709431818284 -18.181658355130395
ltibia 48.63408757050945
lfoot -23.723091676320564 -3.6042120459200913
ltoes -15.41654028801965
